<?xml version="1.0" encoding="iso-8859-1"?>
<!-- Generator: Adobe Illustrator 19.0.0, SVG Export Plug-In . SVG Version: 6.00 Build 0)  -->
<svg version="1.1" id="Capa_1" xmlns="http://www.w3.org/2000/svg" xmlns:xlink="http://www.w3.org/1999/xlink" x="0px" y="0px"
	 viewBox="0 0 512 512" style="enable-background:new 0 0 512 512;" xml:space="preserve">
<circle style="fill:#5D5360;" cx="256" cy="256" r="256"/>
<path style="fill:#4B3F4E;" d="M350.968,417.032c-141.385,0-256-114.615-256-256c0-46.305,12.357-89.698,33.858-127.174
	C51.874,78.009,0,160.92,0,256c0,141.385,114.615,256,256,256c95.08,0,177.991-51.874,222.142-128.826
	C440.666,404.676,397.273,417.032,350.968,417.032z"/>
<path style="fill:#FFDC64;" d="M317.127,227.896h-58.365l51.165-127.913c1.519-3.797-1.278-7.928-5.367-7.928h-63.887
	c-5.404,0-10.185,3.504-11.812,8.657L180.98,252.336c-1.843,5.837,2.515,11.783,8.636,11.783h69.147l-22.74,102.659l-11.164-3.747
	c-3.484-1.169-6.984,1.728-6.486,5.37l8.354,61.003c0.556,4.062,5.524,5.729,8.418,2.826l43.469-43.608
	c2.595-2.603,1.552-7.026-1.932-8.195l-13.036-4.376l61.721-135.342C328.101,234.713,323.718,227.896,317.127,227.896z"/>
<path style="fill:#FFC850;" d="M220.104,381.052l6.622,48.352c0.556,4.062,5.524,5.73,8.418,2.826l29.92-30.016
	C249.307,396.602,234.266,389.494,220.104,381.052z"/>
<g>
</g>
<g>
</g>
<g>
</g>
<g>
</g>
<g>
</g>
<g>
</g>
<g>
</g>
<g>
</g>
<g>
</g>
<g>
</g>
<g>
</g>
<g>
</g>
<g>
</g>
<g>
</g>
<g>
</g>
</svg>
